<?xml version="1.0" encoding="UTF-8"?>
<!DOCTYPE svg PUBLIC "-//W3C//DTD SVG 1.1//EN" "http://www.w3.org/Graphics/SVG/1.1/DTD/svg11.dtd">
<!-- Creator: CorelDRAW 2020 (64-Bit) -->
<svg xmlns="http://www.w3.org/2000/svg" xml:space="preserve" width="311.458mm" height="41.3528mm" version="1.1" style="shape-rendering:geometricPrecision; text-rendering:geometricPrecision; image-rendering:optimizeQuality; fill-rule:evenodd; clip-rule:evenodd"
viewBox="0 0 31145.8 4135.28"
 xmlns:xlink="http://www.w3.org/1999/xlink"
 xmlns:xodm="http://www.corel.com/coreldraw/odm/2003">
 <defs>
  <style type="text/css">
   <![CDATA[
    .fil0 {fill:black}
    .fil1 {fill:white}
   ]]>
  </style>
 </defs>
 <g id="Layer_x0020_1">
  <metadata id="CorelCorpID_0Corel-Layer"/>
  <g id="_2917132796240">
   <path class="fil0" d="M15533.26 4026.91c7.48,43.02 -16.79,19.71 44.09,33.94l1637.69 -1642.73c87.52,31.98 113.5,79.08 178.41,144.35 58.83,59.16 104.63,105.27 162.21,162.05l1815.98 -1805.38c79.78,-82.43 68.64,-107.53 226.8,-108.57l6595.84 1.58c81.36,54.6 70.62,120.26 196.53,115.22 89.31,-3.56 154.32,-61.43 160.55,-155.17 12.78,-191.68 -245.5,-267.47 -329.51,-67.14l-6314.2 0c-202.09,0 -350.46,31.44 -435.77,-45.18 -88.9,-79.83 -440.97,-426.55 -487.44,-507.17 496.47,-22.09 1037.34,-2.75 1538.67,-2.75l9298.08 0c256.12,0 513.58,2.6 769.55,-0.31 153.72,-1.77 165.37,-18.72 244.66,50.08 155.18,134.67 209.02,57.51 304.67,-62.23l0 -86.45c-46.68,-64.81 -73.89,-135.42 -192.15,-124.31 -141.54,13.32 -91.44,78.56 -181.53,116.15l-30422.07 0c-62.73,-50.1 -79.68,-122.02 -193.84,-117.06 -98.94,4.28 -155.85,62.18 -156.24,166.81 -0.54,145.88 163.23,231.86 280.53,128.64 75.91,-66.75 -10.16,-38.81 91.54,-71.32l11770.95 0c-105.02,143.83 -357.29,368.79 -487.18,499.1 -88.95,89.2 -261.99,56.02 -425.03,56l-6286.65 0c-79.32,-39 -70.72,-128.59 -219.33,-113.3 -88.01,9.03 -150.53,86.48 -144.92,179.32 5.06,83.78 75.63,154.53 167.32,156.73 127.79,3.07 105.51,-70.9 196.93,-115.66l6595.94 -1.69c153.46,1.54 147.44,32.64 223.92,111.46 59.27,61.06 104.53,104.81 164.68,164.99l1638.21 1647.79 312.74 -317.93c106.81,34.89 160.86,122.67 236.1,197.91l1423.27 1412.23z"/>
   <path class="fil1" d="M13652.59 2011.47l1905.41 1902.87c100.74,-48.39 1650.34,-1656.51 1922.19,-1904.32 -67.06,-91.44 -498.24,-522.8 -589.47,-589.29l-1307.27 1308.49c-98.79,-45.98 -823.05,-799.68 -1003.52,-980.15 -101.15,-101.15 -234.88,-252.58 -339.32,-331.09 -186.44,192.87 -416.98,393.38 -588.02,593.49z"/>
   <path class="fil1" d="M12392.8 744.91l1159.42 1174.6c77.06,-43.25 555.9,-522.09 596.33,-596.32 -128.02,-156.76 -504.71,-456.99 -572.89,-603l565.49 -565.24c-213.7,-4.99 -1047.71,-44.76 -1169.47,11.81 -32.3,14.98 -537.44,524.69 -578.88,578.15z"/>
   <path class="fil1" d="M17557.74 720.87c-55.82,157.17 -492.56,461.66 -573.63,624.31 153.22,127.76 463.73,503.82 601.75,576.98 152.65,-209.51 1078.46,-1031.53 1138.23,-1170.47 -39.08,-50.71 -538.35,-557.7 -570.99,-577.19 -96.01,-57.33 -970.83,-24.54 -1157.96,-24.54l562.6 570.91z"/>
   <path class="fil1" d="M14695.33 1727.08l855.2 849.74 914.31 -898.49 -862.1 -868.2c-57.87,27.54 -25.08,7.89 -72.59,48.39l-614.89 615.9c-79.26,79.24 -180.57,143.91 -219.93,252.66z"/>
   <path class="fil1" d="M18879.96 751.69c-76.58,114.57 -991.46,998.37 -1173.2,1184.26 -128.95,131.91 -291.06,263.8 -390.16,391.59l235.32 250.89 1769.04 -1756.72c-404.26,-45.41 -432.61,79.08 -429.86,-116.65l465.63 -0.34c-49.4,-80.95 -199.41,-214.27 -276.13,-290.98 -313.93,-313.94 -162.39,-270.3 -780.34,-262.66 67.42,129.44 452.91,468.9 579.7,600.61z"/>
   <path class="fil1" d="M11815.79 813.53c58.86,105.64 1075.41,1093.24 1302.4,1320.22 121.5,121.51 344.44,319.29 434.13,442.37l257.03 -240.2c-64.31,-125.16 -325.75,-342.13 -438.47,-454.86l-1011.05 -1011.56c-13.37,-13.91 -44.76,-49.43 -54.75,-58 -67.32,-57.89 -23.91,2.7 -243.81,1.33 -82.17,-0.5 -163.25,-1.07 -245.48,0.7z"/>
   <path class="fil1" d="M14325.79 1350.66l278.24 278.16 909.5 -895.59 -282.54 -294.6c-93.49,64.34 -862.75,834.45 -905.2,912.03z"/>
   <path class="fil1" d="M16400.22 751.69l493.85 498.18 512.91 -514.28c-139.6,-119.38 -394.13,-428.82 -521.66,-496.32 -120.26,158.24 -389.1,346.36 -485.1,512.42z"/>
   <path class="fil1" d="M13728.61 720.63c34.63,98.51 433.51,484.9 507.87,520.13 88.45,-61.43 438.97,-407.14 483.6,-489.07l-504.68 -509.15 -486.79 478.09z"/>
   <path class="fil1" d="M15683.82 729.7l857.58 865.18 274.16 -268.57c-120.15,-85.6 -325,-315.34 -438.66,-429 -103.95,-103.96 -342.46,-378.63 -454.65,-431.36 -76.43,82.56 -193.18,159.22 -238.43,263.75z"/>
   <path class="fil1" d="M11769.01 705.06l489.15 27.44 568.68 -577.14c-508.55,-19.44 -486.19,-47.38 -672.99,140.3 -90.87,91.31 -341.33,312.22 -384.84,409.4z"/>
   <path class="fil1" d="M14802.51 682.99c79.31,-41.1 284.52,-251.26 335.19,-326.97 -184.61,-275.69 -329.92,-211.2 -839.4,-204.92 39.77,101.31 405.55,441.39 504.21,531.89z"/>
   <path class="fil1" d="M16019.72 372.61c46.57,89.7 210.94,235.82 289.78,303.6l518.08 -520.67c-625.92,-22.92 -547,-66.25 -807.86,217.07z"/>
   <path class="fil1" d="M15313.57 356.02l279.87 290.29 268.35 -262.77c-56.76,-57.69 -184.72,-217.98 -265.1,-231.5 -121.58,-20.43 -241.45,141.75 -283.12,203.98z"/>
  </g>
 </g>
</svg>
